<svg width="14" height="25" viewBox="0 0 14 25" fill="none" xmlns="http://www.w3.org/2000/svg">
<path fill-rule="evenodd" clip-rule="evenodd" d="M7.00002 2C7.55232 2 8.00002 1.55231 8.00002 1C8.00002 0.447693 7.55232 0 7.00002 0C6.44771 0 6.00002 0.447693 6.00002 1C6.00002 1.55231 6.44771 2 7.00002 2ZM7.00002 6C7.55232 6 8.00002 5.55231 8.00002 5C8.00002 4.44769 7.55232 4 7.00002 4C6.44771 4 6.00002 4.44769 6.00002 5C6.00002 5.55231 6.44771 6 7.00002 6ZM8.00002 9C8.00002 9.55231 7.55232 10 7.00002 10C6.44771 10 6.00002 9.55231 6.00002 9C6.00002 8.44769 6.44771 8 7.00002 8C7.55232 8 8.00002 8.44769 8.00002 9ZM7.00002 14C7.55232 14 8.00002 13.5523 8.00002 13C8.00002 12.4477 7.55232 12 7.00002 12C6.44771 12 6.00002 12.4477 6.00002 13C6.00002 13.5523 6.44771 14 7.00002 14ZM8.00002 17C8.00002 17.5523 7.55232 18 7.00002 18C6.44771 18 6.00002 17.5523 6.00002 17C6.00002 16.4477 6.44771 16 7.00002 16C7.55232 16 8.00002 16.4477 8.00002 17ZM1.70711 17.2929C1.3166 16.9023 0.683426 16.9023 0.292923 17.2929C-0.097641 17.6834 -0.097641 18.3166 0.292923 18.7071L6.29292 24.7071C6.68343 25.0977 7.3166 25.0977 7.70711 24.7071L13.7071 18.7071C14.0977 18.3166 14.0977 17.6834 13.7071 17.2929C13.3166 16.9023 12.6834 16.9023 12.2929 17.2929L7.00002 22.5858L1.70711 17.2929Z" fill="white"/>
</svg>
