<svg width="183" height="46" viewBox="0 0 183 46" fill="none" xmlns="http://www.w3.org/2000/svg">
<path d="M144.232 8.9459C143.742 8.9459 142.627 9.16659 142.092 9.16659C141.067 9.16659 134.068 7.5335 129.12 12.83C126.534 15.6107 124.573 18.8769 123.904 22.2314C122.299 22.5403 120.382 23.8645 119.134 24.1734C114.988 25.321 115.702 21.3486 115.791 21.2603C117.396 19.6272 121.631 16.3169 124.172 14.8604C125.866 13.8893 126.178 10.0052 122.611 10.5349C120.159 10.888 112.982 17.8617 112.67 17.8617C112.403 17.8617 118.555 6.78315 121.675 2.50179C123.369 0.206629 118.778 -0.80854 116.459 1.97214C113.874 5.01764 98.6725 28.9403 105.181 29.5141C108.836 29.8231 110.62 25.1886 111.422 25.1886C112.224 25.1886 111.377 28.852 113.829 29.4258C116.192 29.9996 121.051 27.9251 123.993 25.9389C124.617 28.0576 126.4 29.5582 129.387 29.5582C131.661 29.5582 133.845 28.852 135.717 27.572C141.736 23.4672 143.519 16.4052 143.964 14.9928C144.499 12.9183 147.308 8.9459 144.232 8.9459ZM135.405 21.6576C133.221 23.9969 130.546 25.4093 131.081 21.5693C131.482 18.3031 136.029 12.0797 137.768 12.7859C140.086 13.7569 138.437 18.4797 135.405 21.6576Z" fill="white"/>
<path d="M180.519 18.2148C179.137 17.1996 178.424 18.7003 177.488 19.6272C176.195 20.8631 173.253 23.9086 171.202 23.9086C169.508 23.9086 171.782 20.6424 172.183 19.9362C173.654 17.4645 177.443 11.1969 174.902 9.87278C171.648 8.15141 166.298 12.6976 163.624 15.6107C163.936 14.9486 164.248 14.2424 164.515 13.5803C165.719 11.0204 166.165 8.15141 162.153 8.99002C158.453 9.38726 153.683 14.0659 151.944 16.2728C153.415 14.3307 157.739 6.91555 151.142 8.50451C148.378 9.16657 145.881 14.8603 144.499 17.95C143.117 21.1279 136.743 30.1761 146.416 29.5582C147.977 29.4699 148.601 25.1003 148.868 23.9969C149.403 21.7017 151.766 19.1417 153.95 17.8176C155.065 17.1555 155.6 17.0231 155.778 17.1996C155.555 17.641 155.377 18.0824 155.198 18.4796C153.816 21.6576 147.575 30.132 157.249 29.5141C158.809 29.4258 159.3 25.5858 159.567 24.5265C160.102 22.2313 162.465 19.6714 164.649 18.3472C167.814 16.4493 166.254 18.8769 165.541 20.1569C164.426 22.1872 163.178 24.3941 163.178 26.601C163.178 32.2065 172.138 27.6603 174.768 25.8065C176.953 24.3058 179.226 22.4962 180.564 20.4217C180.965 19.7155 181.321 18.7886 180.519 18.2148Z" fill="white"/>
<path d="M39.784 11.9473C40.2298 12.0797 39.9623 11.9914 39.784 11.9473V11.9473Z" fill="white"/>
<path d="M65.4613 8.9459C64.9709 8.9459 63.8565 9.16659 63.3215 9.16659C62.2962 9.16659 55.2974 7.53349 50.3491 12.83C48.566 14.7721 47.0503 16.9348 46.0696 19.23C44.643 20.6865 43.0382 22.0548 41.2105 23.1141C38.7587 24.5707 37.8671 23.5114 38.9815 21.3045C40.8093 17.641 45.8021 13.5804 39.7394 11.9914C39.6948 11.9914 39.6502 11.9914 39.6502 11.9473C39.6502 11.9473 39.6948 11.9473 39.7394 11.9914C38.937 11.8149 38.1791 11.55 37.4659 11.1969C38.3129 10.27 38.7141 8.76935 36.7526 7.84246C34.9695 7.00384 33.7658 7.88659 31.9827 9.56383C30.3778 11.0204 28.1935 13.6245 29.7983 15.39C28.9513 16.8024 27.8369 18.0383 26.6778 19.2741C25.3405 20.7307 25.9646 23.9527 28.1043 22.0107C29.7983 20.4659 31.1803 18.7003 32.5176 16.9348C34.9695 17.8617 33.3646 19.5831 32.3839 21.3045C31.4477 22.9817 30.4224 24.8796 30.5562 26.6893C30.9128 32.1182 39.3382 28.3224 42.2358 26.3803C42.6816 26.0714 43.7069 25.2769 44.9105 24.2617C44.9551 27.1307 46.8274 29.5141 50.5274 29.5141C52.801 29.5141 54.9853 28.8079 56.8576 27.5279C62.8757 23.4231 64.6589 16.361 65.1047 14.9486C65.7288 12.9183 68.5372 8.9459 65.4613 8.9459ZM56.6347 21.6576C54.4504 23.9969 51.8202 25.4093 52.266 21.5693C52.266 21.7017 52.2214 21.7459 52.266 21.5252C52.3106 21.2162 52.266 21.3486 52.266 21.481C52.7118 18.2148 57.2142 11.9914 58.9528 12.7417C61.3155 13.7569 59.6215 18.4797 56.6347 21.6576Z" fill="white"/>
<path d="M103.532 22.7169C103.22 22.0107 101.748 21.5693 100.367 22.4962C99.3412 23.2024 94.0363 25.9389 93.7243 23.2907C93.4568 20.9955 95.8641 15.6107 96.7556 14.11C97.1123 13.4921 104.111 13.9776 104.691 12.4328C105.047 11.4618 105.181 9.96108 103.799 10.3142C102.417 10.6231 99.5641 10.5349 98.405 10.579C99.4304 8.19557 101.303 5.41489 103.175 2.67835C105.047 -0.0140523 99.9207 -1.07336 97.7364 2.06042C95.7303 4.97351 94.9279 6.38592 92.7435 10.5349C90.7375 10.5349 90.0242 10.7997 89.4893 12.168C88.8652 13.8452 90.2471 13.2714 91.0941 13.8893C90.47 15.2135 89.7568 16.6259 89.1327 18.0824C88.6423 18.4355 88.1965 19.0535 87.7062 19.539C86.4134 20.7748 83.4712 23.8203 81.4206 23.8203C79.7266 23.8203 82.0001 20.5541 82.4013 19.8479C83.8724 17.3762 87.6616 11.1087 85.1206 9.78453C81.376 7.84247 74.9121 14.0659 72.8169 16.7142C74.288 14.7721 78.6121 7.35695 72.0144 8.94591C69.2506 9.60798 66.7541 15.3017 65.3722 18.4355C63.9903 21.6134 57.7492 30.0879 67.4228 29.47C68.9831 29.3817 69.4734 25.5417 69.7409 24.4824C70.2759 22.1872 72.6385 19.6272 74.8229 18.3031C77.988 16.4052 76.4277 18.8328 75.7145 20.1128C74.6 22.1431 73.3518 24.35 73.3518 26.5569C73.3518 32.1624 82.3121 27.6162 84.9423 25.7624C85.7447 25.1886 86.5917 24.6148 87.3495 23.9527C87.2604 24.7914 86.9929 26.8658 87.3495 23.9527C86.5471 31.2355 92.8327 30.3086 99.252 27.0424C101.347 25.9831 104.2 24.2617 103.532 22.7169Z" fill="white"/>
<path d="M24.7609 13.3597C26.6332 6.43005 32.6514 4.48798 32.6514 4.48798C34.1225 0.559724 30.5562 0.0742085 30.5562 0.0742085C22.6212 -1.16165 17.5838 13.4479 17.5838 13.4479C17.5838 13.4479 14.4187 13.9335 14.1958 15.8314C13.9729 17.7293 15.3994 18.259 15.3994 18.259C15.1319 18.9652 12.1897 25.4093 8.93549 29.1169C5.59209 32.8244 1.98121 33.8837 1.98121 33.8837C-0.336886 34.9872 0.0197442 36.4879 0.0197442 36.4879C0.688425 38.121 2.07037 37.9885 2.07037 37.9885C6.97403 38.2534 12.056 33.8396 12.056 33.8396C19.2332 27.4396 23.0669 18.2148 23.0669 18.2148C23.0669 18.2148 25.8308 18.3914 26.3658 15.9638C26.8561 13.5804 24.7609 13.3597 24.7609 13.3597Z" fill="white"/>
<path d="M140.772 39.512H140.8L145.546 35.088H147.45L142.172 39.722L146.162 45H144.384L140.73 39.876H140.702L139.806 45H138.448L140.198 35.088H141.556L140.772 39.512ZM148.389 45H147.101L148.263 38.364H149.565L148.389 45ZM150.125 35.942C150.125 36.1753 150.046 36.376 149.887 36.544C149.729 36.712 149.533 36.796 149.299 36.796C149.075 36.796 148.879 36.726 148.711 36.586C148.553 36.446 148.473 36.25 148.473 35.998C148.473 35.746 148.557 35.5407 148.725 35.382C148.903 35.214 149.103 35.13 149.327 35.13C149.551 35.13 149.738 35.2047 149.887 35.354C150.046 35.5033 150.125 35.6993 150.125 35.942ZM156.184 40.058C156.072 39.834 155.881 39.6473 155.61 39.498C155.349 39.3393 155.055 39.26 154.728 39.26C154.346 39.26 153.991 39.3393 153.664 39.498C153.347 39.6473 153.072 39.8573 152.838 40.128C152.605 40.3893 152.423 40.6973 152.292 41.052C152.162 41.3973 152.096 41.766 152.096 42.158C152.096 42.4287 152.134 42.6807 152.208 42.914C152.292 43.1473 152.414 43.3527 152.572 43.53C152.731 43.698 152.927 43.8333 153.16 43.936C153.403 44.0387 153.683 44.09 154 44.09C154.42 44.09 154.775 44.0153 155.064 43.866C155.354 43.7167 155.606 43.5253 155.82 43.292L156.604 44.02C156.25 44.3747 155.853 44.6593 155.414 44.874C154.985 45.0793 154.486 45.182 153.916 45.182C153.44 45.182 153.006 45.112 152.614 44.972C152.232 44.832 151.905 44.636 151.634 44.384C151.364 44.132 151.154 43.8333 151.004 43.488C150.855 43.1333 150.78 42.7413 150.78 42.312C150.78 41.7613 150.874 41.2387 151.06 40.744C151.256 40.24 151.527 39.8013 151.872 39.428C152.227 39.0453 152.652 38.742 153.146 38.518C153.641 38.294 154.192 38.182 154.798 38.182C155.041 38.182 155.279 38.2053 155.512 38.252C155.755 38.2987 155.979 38.3687 156.184 38.462C156.399 38.546 156.59 38.658 156.758 38.798C156.936 38.938 157.08 39.106 157.192 39.302L156.184 40.058ZM159.63 41.262H159.672L162.864 38.364H164.586L161.002 41.444L163.732 45H162.094L159.616 41.556H159.574L158.972 45H157.67L159.532 34.416H160.834L159.63 41.262ZM167.642 45.182C167.185 45.182 166.765 45.112 166.382 44.972C166 44.832 165.668 44.636 165.388 44.384C165.108 44.1227 164.889 43.8147 164.73 43.46C164.572 43.1053 164.492 42.7133 164.492 42.284C164.492 41.7333 164.586 41.2107 164.772 40.716C164.968 40.2213 165.239 39.7873 165.584 39.414C165.939 39.0313 166.359 38.7327 166.844 38.518C167.339 38.294 167.885 38.182 168.482 38.182C168.94 38.182 169.36 38.252 169.742 38.392C170.125 38.532 170.456 38.728 170.736 38.98C171.016 39.232 171.231 39.5353 171.38 39.89C171.539 40.2353 171.618 40.6227 171.618 41.052C171.618 41.612 171.52 42.144 171.324 42.648C171.138 43.1427 170.867 43.5813 170.512 43.964C170.167 44.3373 169.752 44.636 169.266 44.86C168.781 45.0747 168.24 45.182 167.642 45.182ZM170.302 41.178C170.302 40.9073 170.256 40.6553 170.162 40.422C170.078 40.1887 169.952 39.988 169.784 39.82C169.626 39.6427 169.425 39.5073 169.182 39.414C168.949 39.3113 168.688 39.26 168.398 39.26C168.016 39.26 167.666 39.3393 167.348 39.498C167.031 39.6567 166.756 39.8713 166.522 40.142C166.298 40.4033 166.121 40.7113 165.99 41.066C165.869 41.4113 165.808 41.78 165.808 42.172C165.808 42.732 165.976 43.194 166.312 43.558C166.648 43.9127 167.115 44.09 167.712 44.09C168.095 44.09 168.445 44.0153 168.762 43.866C169.08 43.7073 169.35 43.4973 169.574 43.236C169.808 42.9653 169.985 42.6527 170.106 42.298C170.237 41.9433 170.302 41.57 170.302 41.178ZM176.933 39.414H175.379L174.399 45H173.125L174.105 39.414H172.775L172.971 38.364H174.273L174.525 36.964C174.59 36.6187 174.683 36.2827 174.805 35.956C174.935 35.6293 175.108 35.34 175.323 35.088C175.547 34.836 175.817 34.6353 176.135 34.486C176.452 34.3273 176.83 34.248 177.269 34.248C177.577 34.248 177.843 34.2807 178.067 34.346L177.787 35.466C177.693 35.438 177.595 35.4147 177.493 35.396C177.399 35.3773 177.292 35.368 177.171 35.368C176.947 35.368 176.755 35.4147 176.597 35.508C176.438 35.592 176.303 35.7087 176.191 35.858C176.088 36.0073 176.004 36.18 175.939 36.376C175.883 36.572 175.836 36.7727 175.799 36.978L175.547 38.364H177.129L176.933 39.414ZM181.007 39.414H179.453L178.473 45H177.199L178.179 39.414H176.849L177.045 38.364H178.347L178.599 36.964C178.664 36.6187 178.758 36.2827 178.879 35.956C179.01 35.6293 179.182 35.34 179.397 35.088C179.621 34.836 179.892 34.6353 180.209 34.486C180.526 34.3273 180.904 34.248 181.343 34.248C181.651 34.248 181.917 34.2807 182.141 34.346L181.861 35.466C181.768 35.438 181.67 35.4147 181.567 35.396C181.474 35.3773 181.366 35.368 181.245 35.368C181.021 35.368 180.83 35.4147 180.671 35.508C180.512 35.592 180.377 35.7087 180.265 35.858C180.162 36.0073 180.078 36.18 180.013 36.376C179.957 36.572 179.91 36.7727 179.873 36.978L179.621 38.364H181.203L181.007 39.414Z" fill="white"/>
</svg>
